<svg width="366" height="292" viewBox="0 0 366 292" fill="none" xmlns="http://www.w3.org/2000/svg">
<g id="Group 48095657">
<g id="Group 48095651">
<g id="Group 48095650">
<path id="Rectangle 131" d="M4.03906 153.468H343.774L366.002 198.903H32.3292L4.03906 153.468Z" fill="#DCDDFF"/>
<path id="Rectangle 133" d="M4.54688 67.3948H334.453L342.025 154.225H4.54688V67.3948Z" fill="#4548FE"/>
<path id="Rectangle 132" d="M32.8125 198.903H365.748V254.939H32.8125V198.903Z" fill="#4548FE"/>
</g>
<g id="Group 48095649">
<path id="Vector 356" d="M221.37 175.681C207.234 139.333 227.259 84.475 239.039 61.5894C240.349 58.9642 257.085 60.4956 265.29 61.5894L277.153 161.798C264.448 181.571 235.505 212.029 221.37 175.681Z" fill="white"/>
<path id="Vector 330" d="M233.522 9.56271C223.959 16.3169 229.538 25.1943 233.522 28.7887H267.46C274.399 19.0085 276.906 4.88159 250.491 0.785605C229.359 -2.49118 230.374 5.27168 233.522 9.56271Z" fill="black"/>
<path id="Vector 331" d="M239.874 46.5938C226.165 42.5814 234.162 21.9065 239.874 12.0706C247.147 8.92195 262.878 7.28913 267.626 25.9467C273.561 49.2688 257.01 51.6093 239.874 46.5938Z" fill="#F6CDB0"/>
<path id="Vector 332" d="M76 42.4419L81.458 15.2202L101.275 13C103.85 18.3414 109 30.723 109 37.5188C109 44.3146 99.9313 51.2905 95.3969 53.929C95.9847 60.9758 88.2595 60.5897 85.9924 59.1417C84.1786 57.9833 85.2366 55.1839 85.9924 53.929L76 42.4419Z" fill="#F6CDB0"/>
<path id="Vector 333" d="M79.0911 36.2421C74.4785 29.6765 92.4304 21.1799 100.395 18.4936C116.854 45.0684 88 46 92.9595 54.3744C96.034 65.5799 103.486 64.7357 106.828 62.9128C117.655 20.9305 109 11.3942 103.319 11.8739C65.2225 -7.62064 60.9896 36.0503 63.6352 60.3225C64.9441 61.3139 69.8677 63.2198 79.0911 62.9128C90.6203 62.5291 87 47.5 79.0911 36.2421Z" fill="black"/>
<path id="Vector 334" d="M54.2211 181.426C46.5307 180.891 48.4533 150.497 50.3759 135.367L98.3574 168.219C67.7629 168.469 63.8341 182.095 54.2211 181.426Z" fill="#DDA15F"/>
<path id="Vector 335" d="M80.301 194.969C76.1548 193.431 64.1957 185.3 58.7344 181.427C85.0155 162.301 110.477 162.089 119.923 164.374L141.239 187.613L114.824 267.86H105.796L114.824 194.969L105.796 183.099L107.719 194.969L90.3319 267.86L80.301 265.938V194.969Z" fill="#272727"/>
<path id="Vector 336" d="M56.1384 65.7358C56.4059 63.3953 67.6183 57.9061 73.1911 55.4541L96.7639 51.6089L119.584 70.9185L83.8072 65.7358L47.747 113.869C54.4529 109.063 80.0876 103.432 93.8382 100.928L96.7639 108.618C88.9063 115.501 69.7806 130.352 56.1384 134.699C39.0858 140.132 39.0858 129.265 36.1601 126.005C33.2344 122.745 55.8041 68.6615 56.1384 65.7358Z" fill="#DDA15F"/>
<path id="Vector 337" d="M77.2894 56.207C64.5835 83.625 42.6826 87.3587 33.3203 85.7983C42.0138 157.42 98.7446 176.941 126.023 177.749C168.421 145.717 150.153 77.1327 135.72 46.8447C114.32 62.7605 87.8498 59.7178 77.2894 56.207Z" fill="#009D49"/>
<path id="Vector 338" d="M81.2262 64.7914C70.2566 88.4626 51.3485 91.6861 43.2656 90.339C50.7711 152.173 99.7494 169.027 123.3 169.724C159.904 142.069 144.133 82.8575 131.672 56.7085C113.197 70.4494 90.3434 67.8224 81.2262 64.7914Z" fill="#08D667"/>
<path id="Vector 339" d="M221.818 178.836C210.249 132.292 231.041 80.142 242.883 59.885C235.276 51.6931 231.598 59.885 224.995 59.885C219.712 59.885 203.734 85.2968 196.406 98.0027L215.883 106.78C196.757 150.047 204.347 178.306 210.533 187.028L221.818 178.836Z" fill="#ACE7F3"/>
<path id="Vector 340" d="M271.889 180.423C242.732 90.6125 254.279 62.2527 263.697 59.2992C284.629 54.7518 300.282 86.55 305.493 103.018L292.035 112.129C305.142 137.006 293.261 171.98 285.682 186.358L271.889 180.423Z" fill="#ACE7F3"/>
<path id="Vector 341" d="M235.781 275.718H227.338C220.679 262.761 206.842 228.422 204.769 194.718C202.696 161.014 228.815 165.572 242.134 172.065V192.043L235.781 197.894V275.718Z" fill="#272727"/>
<path id="Vector 342" d="M251.075 272.625C254.887 223.407 247.37 199.455 243.134 193.632L240.543 176.245C254.252 158.857 270.552 166.799 276.822 174.155C281.837 180.04 271.221 242.254 265.286 272.625H251.075Z" fill="#272727"/>
<path id="Vector 343" d="M226.1 291.082C214.331 289.811 221.196 278.237 226.1 272.608H237.134C238.36 279.295 237.87 292.352 226.1 291.082Z" fill="black"/>
<path id="Vector 344" d="M252.663 288.424C240.893 283.408 247.759 275.412 252.663 272.04H264.783C265.647 279.591 264.432 293.439 252.663 288.424Z" fill="black"/>
<path id="Vector 345" d="M97.9241 279.249C81.8745 278.848 80.3699 269.943 81.6238 265.54H91.0696C100.042 270.277 113.974 279.651 97.9241 279.249Z" fill="black" stroke="black" stroke-width="0.167183"/>
<path id="Vector 346" d="M122.002 279.5C105.953 279.099 104.448 270.193 105.702 265.791H115.148C124.12 270.528 138.052 279.901 122.002 279.5Z" fill="black" stroke="black" stroke-width="0.167183"/>
<path id="Vector 347" d="M269.213 104.188C266.672 111.812 276.068 113.551 281.083 113.467L303.068 136.705L315.606 139.297L319.368 128.597L283.089 104.188C279.523 101.012 271.754 96.5648 269.213 104.188Z" fill="#F6CDB0"/>
<path id="Vector 348" d="M304.011 101.976L319.057 129.477L293.812 110.669L304.011 101.976Z" fill="#FDBA8C"/>
<path id="Vector 349" d="M190.305 119.569L194.902 131.188L203.094 128.597L206.856 106.528L215.8 100.426C227.169 89.2585 222.877 83.6244 219.311 82.2034L211.203 85.0455L193.23 110.039L190.305 119.569Z" fill="#F6CDB0"/>
<g id="Vector 350">
<path d="M219.231 50.3549L213.296 84.5438H217.392L222.407 54.2836L229.262 55.4539C230.332 58.3188 234.221 58.4309 236.032 58.1288V50.3549C231.151 48.8837 229.819 50.9679 229.763 52.1939L219.231 50.3549Z" fill="#30C2DF"/>
<path d="M236.032 152.504C212.426 150.899 209.367 115.668 210.788 98.2527H215.636C214.232 128.096 223.41 140.167 228.175 142.473C256.997 161.197 272.06 119.68 275.989 96.5809C279.667 93.906 281.311 96.5809 281.673 98.2527C272.395 134.03 265.54 154.51 236.032 152.504Z" fill="#30C2DF"/>
</g>
<path id="Vector 351" d="M282.254 61.8074L276.57 95.7456L281 96.6651L285.849 59.1325L275.734 57.3771C275.065 54.4158 271.276 54.1928 269.465 54.4514L268.211 61.8074C272.424 64.6161 274.982 62.4204 275.734 60.9715L282.254 61.8074Z" fill="#B0B0B0"/>
<path id="Vector 352" d="M276.488 215.867C231.749 208.31 229.481 170.922 233.939 153.173H241.045C238.905 191.09 256.704 204.86 265.871 207.006C314.104 221.802 324.135 160.863 324.469 155.514C324.737 151.234 330.098 152.17 332.745 153.173C332.633 177.219 321.226 223.423 276.488 215.867Z" fill="#30C2DF"/>
<path id="Vector 353" d="M326.727 153.173L334.083 104.356H338.346L330.739 154.093L326.727 153.173Z" fill="#B0B0B0"/>
<path id="Vector 354" d="M113.402 95.4945C104.775 90.6127 97.2687 97.5285 94.5938 101.597L96.7671 107.03C105.906 105.219 122.028 100.376 113.402 95.4945Z" fill="#F6CDB0"/>
<path id="Vector 355" d="M138.645 98.7547C138.255 101.04 140.301 105.609 151.602 105.609C165.729 105.609 149.847 91.9002 138.645 98.7547Z" fill="#F6CDB0"/>
<path id="Vector 329" d="M94.0999 101.743C88.4317 99.7111 54.9342 109.534 38.8939 114.7C35.4497 121.474 32.0449 135.176 45.9792 135.785C59.9136 136.395 86.4242 116.563 97.9378 106.57L94.0999 101.743Z" fill="#DDA15F"/>
<ellipse id="Ellipse 67" cx="337.01" cy="99.5908" rx="17.8886" ry="17.3034" fill="black"/>
<ellipse id="Ellipse 68" cx="337.069" cy="100.599" rx="7.21351" ry="7.54139" fill="#B0B0B0"/>
<path id="Vector 357" d="M243.58 62.0939C244.085 60.0745 248.376 49.978 247.871 45.9393C248.376 38.9558 250.648 29.8353 255.696 49.2207C262.007 73.4525 243.075 64.1132 243.58 62.0939Z" fill="#F6CDB0"/>
</g>
<path id="Vector 358" d="M0 213.898L3.2244 154.478L33.3188 198.288V254.434L0 213.898Z" fill="black" stroke="black" stroke-width="0.50483"/>
</g>
</g>
</svg>
