<svg width="1657" height="503" viewBox="0 0 1657 503" fill="none" xmlns="http://www.w3.org/2000/svg">
<g id="Group 48095639">
<path id="Vector 13" d="M390.286 25.405C37.1004 -90.4563 14.2697 220.45 16.1229 345.271L0 496H1650.1C1662.33 388.95 1679.04 41.4102 1497.76 115.327C1261.48 211.673 1328.75 3.56679 1091.91 3.56679C960.439 3.56679 840.616 173.134 390.286 25.405Z" fill="#E7F9FC"/>
<rect id="Rectangle 3736" x="1237" y="212" width="146" height="235" fill="#D2F5FC" stroke="#6B9FAC" stroke-width="6"/>
<rect id="Rectangle 3737" x="138" y="212" width="146" height="235" fill="#D2F5FC" stroke="#6B9FAC" stroke-width="6"/>
<rect id="Rectangle 3735" x="87" y="423" width="1462" height="80" fill="#FDECD2"/>
<g id="Group 48095637">
<path id="Vector 210" d="M763.843 368.455L751.082 221.035L843.43 184.431L952.233 360.396L763.843 368.455Z" fill="url(#paint0_linear_416_6549)"/>
<path id="Vector 211" d="M844.438 363.418L951.561 186.782L1043.57 219.691L1002.27 376.515L844.438 363.418Z" fill="url(#paint1_linear_416_6549)"/>
<path id="Vector 208" d="M1021.77 118.915C1009.81 122.779 1003.61 155.362 1002 171.17L1016.95 176L1035.83 126.917L1211 24.9229L1187.31 21C1185.54 22.171 1033.73 115.051 1021.77 118.915Z" fill="white"/>
<path id="Vector 209" d="M960.294 166.633C957.07 167.976 953.354 179.058 951.898 184.431C986.285 172.879 1028.02 202.453 1044.58 218.684L1050.96 200.886C1013.02 162.939 964.323 164.954 960.294 166.633Z" fill="white"/>
<path id="Vector 193" d="M760.152 382.56V401.029L957.945 393.306C959.624 378.082 961.303 347.635 954.587 347.635C946.192 347.635 947.199 347.635 923.692 344.613C900.185 341.591 893.133 351.665 869.291 347.635C845.448 343.606 824.964 352.337 811.531 351.665C798.099 350.993 792.054 344.613 784.667 344.613C778.756 344.613 765.861 369.911 760.152 382.56Z" fill="#91E3F1"/>
<path id="Vector 192" d="M738.93 403.044C743.028 403.411 746.535 403.524 749.556 403.473C760.233 400.45 770.164 388.782 779.292 387.261C791.381 385.246 789.702 391.626 793.396 394.984C797.09 398.342 812.201 383.231 816.567 383.567C820.933 383.903 814.552 387.261 824.627 394.984C832.686 401.163 852.611 382.335 861.566 372.149C861.297 396.865 874.886 392.522 881.714 387.261C895.684 395.589 921.564 390.731 932.758 387.261C969.562 391.29 1011.23 369.91 1027.46 358.717C1030.41 386.388 1023.76 394.425 1020.07 394.984L837.052 397.335C817.239 407.409 775.197 403.044 770.16 401.029C766.864 399.71 763.12 403.244 749.556 403.473C746.092 404.453 742.549 404.524 738.93 403.044Z" fill="#75AFB1"/>
<path id="Vector 194" d="M994.548 348.307C992.13 346.695 988.391 347.635 986.824 348.307V364.762C996.563 367.112 997.57 350.322 994.548 348.307Z" fill="#F1BDB2"/>
<path id="Vector 195" d="M986.824 379.537V367.196L994.975 348.299C999.297 345.728 1008.02 344.211 1008.31 358.712C1008.61 373.213 994.11 378.638 986.824 379.537Z" fill="#8EE4F5"/>
<path id="Vector 196" d="M1004.41 348.887C1002.21 348.015 1022.72 334.94 1027.12 359.346L1002.94 372.821C1004.26 367.53 1008.95 356.559 1004.62 349.234C1004.55 349.117 1004.48 349.001 1004.41 348.887Z" fill="#FDFFFD"/>
<path id="Vector 197" d="M963.986 296.928C959.15 296.659 957.941 278.906 957.941 270.063C968.15 270.063 972.717 283.272 973.725 289.876C970.769 294.174 973.389 300.622 975.068 303.308C972.65 303.308 965.105 304.875 961.635 305.659C964.59 303.241 964.434 298.831 963.986 296.928Z" fill="#F1BDB2"/>
<path id="Vector 198" d="M971.038 259.652C961.367 259.115 958.277 266.593 957.941 270.398C965.665 270.398 968.352 277.115 971.038 284.167C973.187 289.808 977.083 295.025 978.762 296.928C999.582 283.159 983.127 260.324 971.038 259.652Z" fill="#6B9FAC"/>
<path id="Vector 199" d="M969.026 280.809C966.34 281.078 958.952 279.802 955.594 279.13C955.594 291.219 955.594 291.555 960.967 296.928C965.265 301.226 971.713 292.898 974.399 288.197C973.728 288.868 971.914 290.144 970.034 289.876C968.153 289.607 968.578 283.719 969.026 280.809Z" fill="white"/>
<path id="Vector 204" d="M895.816 278.458C897.831 281.257 902.6 285.174 905.555 278.458C909.249 270.063 908.913 268.048 912.271 268.384C914.958 268.652 933.539 268.496 942.494 268.384C944.397 268.16 948.606 269.593 950.218 277.115C951.83 284.637 957.606 280.249 960.292 277.115" stroke="#858585" stroke-width="0.671622"/>
<path id="Vector 178" d="M773.919 141.111C761.942 136.41 695.418 86.3059 693 85.5H712C717.037 87.7387 779.225 133.119 782.986 134.731C786.747 136.343 790.15 160.477 791.381 172.342C815.559 162.939 830.335 164.618 834.701 166.633L841.753 184.095C792.053 178.454 760.598 204.804 751.084 218.684L742.353 203.236C742.621 196.789 767.986 181.297 780.635 174.357L773.919 141.111Z" fill="white"/>
<path id="Vector 176" d="M580 320C583.224 336.326 631.039 348.248 632.328 366.906C633.36 381.833 639.206 382.011 642 380.234" stroke="#0254B0" stroke-width="0.671622"/>
<path id="Vector 177" d="M576 329C580.598 345.535 626.366 354.829 628.205 373.726C629.677 388.844 638.015 389.024 642 387.224" stroke="#009D49" stroke-width="0.671622"/>
<rect id="Rectangle 52" x="321" y="157" width="127.608" height="40.2973" fill="#C9CDD6"/>
<rect id="Rectangle 53" x="335.773" y="192.596" width="98.0568" height="9.4027" fill="white"/>
<rect id="Rectangle 63" opacity="0.2" x="499" y="327" width="78.5797" height="4.02973" fill="#D9D9D9"/>
<g id="Group 48095638">
<rect id="Rectangle 54" x="496" y="252" width="83.9527" height="51.7149" rx="6.71622" fill="#F7FCF5"/>
<rect id="Rectangle 55" x="503.387" y="258.044" width="12.0892" height="16.1189" fill="#F02C25"/>
<rect id="Rectangle 56" x="503.387" y="275.507" width="12.0892" height="5.37297" fill="#D9D9D9"/>
<rect id="Rectangle 57" x="503.387" y="282.223" width="12.0892" height="5.37297" fill="#D9D9D9"/>
<rect id="Rectangle 58" x="503.387" y="288.939" width="12.0892" height="5.37297" fill="#D9D9D9"/>
<rect id="Rectangle 59" x="520.852" y="256.029" width="53.7297" height="38.2824" rx="7.38784" fill="#0D8BA7"/>
<rect id="Rectangle 60" x="532.266" y="299.685" width="15.4473" height="6.04459" fill="#898989"/>
<rect id="Rectangle 61" x="520.852" y="305.729" width="34.9243" height="2.01486" fill="#D9D9D9"/>
<rect id="Rectangle 62" x="499.359" y="307.744" width="80.5946" height="21.4919" fill="#FAFCF9"/>
<rect id="Rectangle 64" x="503.387" y="312.446" width="67.1622" height="24.85" rx="5.37297" fill="#E6E7E8"/>
<rect id="Rectangle 65" x="508.762" y="314.461" width="4.02973" height="4.02973" rx="0.671622" fill="white"/>
<rect id="Rectangle 76" x="508.762" y="319.834" width="4.02973" height="4.02973" rx="0.671622" fill="white"/>
<rect id="Rectangle 87" x="508.762" y="325.207" width="4.02973" height="4.02973" rx="0.671622" fill="white"/>
<rect id="Rectangle 98" x="508.762" y="330.58" width="4.02973" height="4.02973" rx="0.671622" fill="white"/>
<rect id="Rectangle 66" x="514.133" y="314.461" width="4.02973" height="4.02973" rx="0.671622" fill="white"/>
<rect id="Rectangle 77" x="514.133" y="319.834" width="4.02973" height="4.02973" rx="0.671622" fill="white"/>
<rect id="Rectangle 88" x="514.133" y="325.207" width="4.02973" height="4.02973" rx="0.671622" fill="white"/>
<rect id="Rectangle 99" x="514.133" y="330.58" width="4.02973" height="4.02973" rx="0.671622" fill="white"/>
<rect id="Rectangle 67" x="519.508" y="314.461" width="4.02973" height="4.02973" rx="0.671622" fill="white"/>
<rect id="Rectangle 78" x="519.508" y="319.834" width="4.02973" height="4.02973" rx="0.671622" fill="white"/>
<rect id="Rectangle 89" x="519.508" y="325.207" width="4.02973" height="4.02973" rx="0.671622" fill="white"/>
<rect id="Rectangle 100" x="519.508" y="330.58" width="4.02973" height="4.02973" rx="0.671622" fill="white"/>
<rect id="Rectangle 68" x="524.879" y="314.461" width="4.02973" height="4.02973" rx="0.671622" fill="white"/>
<rect id="Rectangle 79" x="524.879" y="319.834" width="4.02973" height="4.02973" rx="0.671622" fill="white"/>
<rect id="Rectangle 90" x="524.879" y="325.207" width="4.02973" height="4.02973" rx="0.671622" fill="white"/>
<rect id="Rectangle 101" x="524.879" y="330.58" width="4.02973" height="4.02973" rx="0.671622" fill="white"/>
<rect id="Rectangle 69" x="530.254" y="314.461" width="4.02973" height="4.02973" rx="0.671622" fill="white"/>
<rect id="Rectangle 80" x="530.254" y="319.834" width="4.02973" height="4.02973" rx="0.671622" fill="white"/>
<rect id="Rectangle 91" x="530.254" y="325.207" width="4.02973" height="4.02973" rx="0.671622" fill="white"/>
<rect id="Rectangle 102" x="530.254" y="330.58" width="4.02973" height="4.02973" rx="0.671622" fill="white"/>
<rect id="Rectangle 70" x="535.625" y="314.461" width="4.02973" height="4.02973" rx="0.671622" fill="white"/>
<rect id="Rectangle 81" x="535.625" y="319.834" width="4.02973" height="4.02973" rx="0.671622" fill="white"/>
<rect id="Rectangle 92" x="535.625" y="325.207" width="4.02973" height="4.02973" rx="0.671622" fill="white"/>
<rect id="Rectangle 103" x="535.625" y="330.58" width="4.02973" height="4.02973" rx="0.671622" fill="white"/>
<rect id="Rectangle 71" x="541" y="314.461" width="4.02973" height="4.02973" rx="0.671622" fill="white"/>
<rect id="Rectangle 82" x="541" y="319.834" width="4.02973" height="4.02973" rx="0.671622" fill="white"/>
<rect id="Rectangle 93" x="541" y="325.207" width="4.02973" height="4.02973" rx="0.671622" fill="white"/>
<rect id="Rectangle 104" x="541" y="330.58" width="4.02973" height="4.02973" rx="0.671622" fill="white"/>
<rect id="Rectangle 72" x="546.371" y="314.461" width="4.02973" height="4.02973" rx="0.671622" fill="white"/>
<rect id="Rectangle 83" x="546.371" y="319.834" width="4.02973" height="4.02973" rx="0.671622" fill="white"/>
<rect id="Rectangle 94" x="546.371" y="325.207" width="4.02973" height="4.02973" rx="0.671622" fill="white"/>
<rect id="Rectangle 105" x="546.371" y="330.58" width="4.02973" height="4.02973" rx="0.671622" fill="white"/>
<rect id="Rectangle 73" x="551.742" y="314.461" width="4.02973" height="4.02973" rx="0.671622" fill="white"/>
<rect id="Rectangle 84" x="551.742" y="319.834" width="4.02973" height="4.02973" rx="0.671622" fill="white"/>
<rect id="Rectangle 95" x="551.742" y="325.207" width="4.02973" height="4.02973" rx="0.671622" fill="white"/>
<rect id="Rectangle 106" x="551.742" y="330.58" width="4.02973" height="4.02973" rx="0.671622" fill="white"/>
<rect id="Rectangle 74" x="557.117" y="314.461" width="4.02973" height="4.02973" rx="0.671622" fill="white"/>
<rect id="Rectangle 85" x="557.117" y="319.834" width="4.02973" height="4.02973" rx="0.671622" fill="white"/>
<rect id="Rectangle 96" x="557.117" y="325.207" width="4.02973" height="4.02973" rx="0.671622" fill="white"/>
<rect id="Rectangle 107" x="557.117" y="330.58" width="4.02973" height="4.02973" rx="0.671622" fill="white"/>
<rect id="Rectangle 75" x="562.492" y="314.461" width="4.02973" height="4.02973" rx="0.671622" fill="white"/>
<rect id="Rectangle 86" x="562.492" y="319.834" width="4.02973" height="4.02973" rx="0.671622" fill="white"/>
<rect id="Rectangle 97" x="562.492" y="325.207" width="4.02973" height="4.02973" rx="0.671622" fill="white"/>
<rect id="Rectangle 108" x="562.492" y="330.58" width="4.02973" height="4.02973" rx="0.671622" fill="white"/>
<rect id="Rectangle 109" x="535.625" y="337.296" width="5.37297" height="77.9081" fill="#91A9BA"/>
<rect id="Rectangle 110" x="514.824" y="418.055" width="5.37297" height="48.291" transform="rotate(-90 514.824 418.055)" fill="#91A9BA"/>
<rect id="Rectangle 111" x="506.074" y="423.264" width="5.37297" height="64.4757" transform="rotate(-90 506.074 423.264)" fill="white"/>
</g>
<rect id="Rectangle 112" x="637" y="320" width="37.6108" height="98.0568" rx="9.4027" fill="#FAFCF9"/>
<rect id="Rectangle 113" x="642.375" y="328.06" width="26.8649" height="4.70135" fill="#22B3EA"/>
<rect id="Rectangle 114" x="642.375" y="336.119" width="26.8649" height="4.70135" fill="#F02C25"/>
<rect id="Rectangle 115" x="642.375" y="354.925" width="26.8649" height="4.70135" fill="#22B3EA"/>
<rect id="Rectangle 116" x="642.375" y="362.984" width="26.8649" height="4.70135" fill="#F02C25"/>
<rect id="Rectangle 117" x="642.375" y="371.043" width="26.8649" height="4.70135" fill="#F02C25"/>
<rect id="Rectangle 118" x="642.375" y="377.76" width="26.8649" height="4.70135" fill="#F02C25"/>
<rect id="Rectangle 119" x="642.375" y="385.819" width="26.8649" height="4.70135" fill="#F02C25"/>
<rect id="Rectangle 120" x="642.375" y="392.535" width="26.8649" height="4.70135" fill="#F02C25"/>
<ellipse id="Ellipse 39" cx="645.733" cy="347.872" rx="3.35811" ry="3.0223" fill="black"/>
<ellipse id="Ellipse 40" cx="655.803" cy="347.872" rx="3.35811" ry="3.0223" fill="black"/>
<path id="Rectangle 121" d="M839.738 396.999H939.81V396.999C939.81 404.047 934.097 409.76 927.049 409.76H852.499C845.451 409.76 839.738 404.047 839.738 396.999V396.999Z" fill="#2B2F38"/>
<rect id="Rectangle 122" x="875.332" y="409.76" width="29.5514" height="37.6108" fill="#293038"/>
<path id="Rectangle 123" d="M850.484 460.804C850.484 453.385 856.498 447.371 863.917 447.371H916.975C924.393 447.371 930.407 453.385 930.407 460.804V462.818H850.484V460.804Z" fill="#508D8E"/>
<path id="Rectangle 124" d="M795.41 473.564C795.41 466.146 801.424 460.132 808.843 460.132H966.674C974.092 460.132 980.106 466.146 980.106 473.564V475.579H795.41V473.564Z" fill="#508D8E"/>
<ellipse id="Ellipse 56" cx="958.131" cy="489.012" rx="14.1041" ry="4.36554" fill="black"/>
<ellipse id="Ellipse 57" cx="963.504" cy="496.063" rx="19.477" ry="6.71622" fill="black"/>
<path id="Vector 213" d="M944.027 433.938C945.102 425.073 946.266 409.424 946.714 402.708L982.646 401.029C975.929 409.894 977.609 436.737 979.288 449.05C991.713 489.011 989.362 496.063 987.011 496.063C984.661 496.063 964.848 497.071 956.788 496.063C948.729 495.056 942.684 445.02 944.027 433.938Z" fill="#59848D"/>
<path id="Vector 200" d="M943.503 354.687C945.115 327.285 956.264 310.808 961.637 305.994C968.085 301.696 975.517 302.636 978.428 303.644C991.86 321.106 988.726 377.634 985.48 403.715C977.152 407.476 954.025 405.282 943.503 403.715C942.832 398.79 941.891 382.089 943.503 354.687Z" fill="#6B9FAC"/>
<path id="Vector 182" d="M723.211 299.614L723.883 296.928L726.905 282.152C734.293 274.092 749.673 261.869 752.091 277.451C754.509 293.032 742.8 299.39 736.643 300.621L723.211 299.614Z" fill="#F1BDB2"/>
<path id="Vector 183" d="M752.428 285.846C737.652 287.189 731.72 283.495 730.6 281.48C730.6 283.898 733.735 285.398 735.302 285.846L733.958 290.547C732.078 290.547 728.697 288.309 727.242 287.189C727.242 289.338 735.749 297.264 740.003 300.957C751.286 302.032 752.988 291.331 752.428 285.846Z" fill="white"/>
<path id="Vector 184" d="M712.465 341.255C712.465 318.957 720.3 304.204 724.218 299.614H736.643C758.672 308.48 761.717 358.157 760.486 381.888C761.045 385.918 761.628 395.119 759.478 399.686C757.329 404.253 727.241 403.156 712.465 402.037V341.255Z" fill="#6B9FAC"/>
<g id="Vector 181">
<path d="M723.883 296.591C723.346 296.591 724.779 285.174 725.562 279.465C722.973 273.084 745.711 266.704 750.748 271.741C754.608 275.602 753.144 277.293 752.551 277.872C752.58 278.029 752.545 278.122 752.427 278.122C752.27 278.122 752.37 278.049 752.551 277.872C752.413 277.134 750.848 274.982 749.741 274.428C748.398 273.756 748.062 276.443 741.346 275.771C735.973 275.234 731.943 278.905 730.6 280.808C725.227 280.472 729.592 286.517 727.577 286.517C725.562 286.517 724.555 296.591 723.883 296.591Z" fill="black"/>
<path d="M725.562 279.465C724.779 285.174 723.346 296.591 723.883 296.591C724.555 296.591 725.562 286.517 727.577 286.517C729.592 286.517 725.227 280.472 730.6 280.808C731.943 278.905 735.973 275.234 741.346 275.771C748.062 276.443 748.398 273.756 749.741 274.428C751.084 275.099 753.099 278.122 752.427 278.122C751.756 278.122 755.785 276.779 750.748 271.741C745.711 266.704 722.973 273.084 725.562 279.465Z" stroke="black" stroke-width="0.671622"/>
</g>
<path id="Vector 185" d="M743.025 317.413C740.876 314.726 732.055 314.95 727.913 315.398C715.153 327.487 743.025 385.246 758.808 382.56C771.435 380.411 773.92 370.247 773.584 365.433C770.673 361.068 763.644 352.068 758.808 350.993C752.763 349.65 745.711 320.771 743.025 317.413Z" fill="#59848D"/>
<path id="Vector 186" d="M765.523 342.934C761.762 342.665 758.807 338.121 757.8 335.882C750.076 347.971 765.523 370.806 772.239 363.083C778.956 355.359 770.225 343.27 765.523 342.934Z" fill="#59848D"/>
<path id="Vector 187" d="M781.643 375.507C780.568 369.866 775.598 368.903 773.248 369.127C768.546 369.575 760.957 372.149 768.211 378.865C777.277 387.261 782.986 382.559 781.643 375.507Z" fill="white"/>
<path id="Vector 190" d="M730.265 498.078C724.354 498.078 724.668 494.496 725.563 492.705C734.406 491.026 752.092 488.676 752.092 492.705C752.092 497.743 737.653 498.078 730.265 498.078Z" fill="black"/>
<path id="Vector 191" d="M760.487 498.414C752.849 498.414 753.255 492.715 754.412 489.865C765.839 487.194 788.694 483.454 788.694 489.865C788.694 497.88 770.034 498.414 760.487 498.414Z" fill="black"/>
<path id="Vector 188" d="M772.24 357.374C778.732 357.933 789.299 361.605 779.627 371.813C769.956 382.022 770.672 366.44 772.24 357.374Z" fill="white"/>
<path id="Vector 189" d="M776.271 491.698C774.121 493.847 759.256 493.713 752.092 493.377C751.978 492.835 751.86 492.275 751.739 491.698C745.588 493.265 730.802 495.459 720.862 491.698C710.922 487.937 718.287 431.252 723.212 403.38C734.854 401.589 758.204 398.611 758.473 401.029C758.741 403.447 765.525 418.156 768.883 425.208C774.256 428.431 775.151 443.789 774.927 451.065C776.271 463.714 778.42 489.549 776.271 491.698Z" fill="#59848D"/>
<rect id="Rectangle 125" x="925.035" y="268.048" width="3.35811" height="85.9676" fill="#858585"/>
<path id="Vector 180" d="M733.96 263.011C717.572 263.817 721.311 274.317 725.229 279.466C734.094 272.212 746.161 271.294 751.086 271.742C752.205 268.496 750.347 262.205 733.96 263.011Z" fill="#6B9FAC"/>
<rect id="Rectangle 126" x="923.02" y="354.016" width="7.38784" height="104.773" fill="#293038"/>
<path id="Vector 202" d="M921.589 381.358C916.73 373.708 927.123 371.136 932.926 370.806C931.306 374.235 936.84 379.27 939.809 381.358C935.76 384.545 926.448 389.008 921.589 381.358Z" fill="white"/>
<path id="Vector 203" d="M940.816 385.246C932.488 389.007 929.286 386.813 928.727 385.246L934.435 376.515L940.816 385.246Z" fill="white"/>
<ellipse id="Ellipse 41" cx="932.085" cy="357.71" rx="1.67905" ry="3.69392" fill="#293038"/>
<path id="Vector 206" d="M899.512 318.419C901.862 326.815 907.303 344.68 910.258 348.978C913.213 353.277 913.504 366.664 913.28 372.821C912.72 375.619 914.086 380.813 924.026 379.201" stroke="white" stroke-width="0.671622"/>
<path id="Vector 207" d="M902.871 317.748C904.214 335.546 908.378 371.746 914.289 374.164C920.199 376.582 923.244 379.425 924.027 380.545" stroke="white" stroke-width="0.671622"/>
<rect id="Rectangle 127" x="890.109" y="282.152" width="21.4919" height="36.2676" rx="10.7459" fill="white"/>
<path id="Rectangle 128" d="M890.109 298.271H911.601V305.659C911.601 311.594 906.79 316.405 900.855 316.405V316.405C894.921 316.405 890.109 311.594 890.109 305.659V298.271Z" fill="#F02C25"/>
<ellipse id="Ellipse 42" cx="997.39" cy="201.276" rx="49.7" ry="15.0537" transform="rotate(20.1941 997.39 201.276)" fill="#6B9FAC"/>
<ellipse id="Ellipse 49" cx="797.549" cy="204.013" rx="49.7" ry="15.0537" transform="rotate(-20.2636 797.549 204.013)" fill="#6B9FAC"/>
<g id="Ellipse 43" filter="url(#filter0_f_416_6549)">
<ellipse cx="989.238" cy="192.317" rx="13.0966" ry="3.0223" transform="rotate(24.7202 989.238 192.317)" fill="white"/>
</g>
<g id="Ellipse 50" filter="url(#filter1_f_416_6549)">
<ellipse cx="785.531" cy="202.488" rx="13.0966" ry="3.0223" transform="rotate(-15.7375 785.531 202.488)" fill="white"/>
</g>
<g id="Ellipse 44" filter="url(#filter2_f_416_6549)">
<ellipse cx="1026.18" cy="213.81" rx="13.0966" ry="3.0223" transform="rotate(24.7202 1026.18 213.81)" fill="white"/>
</g>
<g id="Ellipse 51" filter="url(#filter3_f_416_6549)">
<ellipse cx="827.586" cy="194.871" rx="13.0966" ry="3.0223" transform="rotate(-15.7375 827.586 194.871)" fill="white"/>
</g>
<g id="Ellipse 45" filter="url(#filter4_f_416_6549)">
<ellipse cx="984.535" cy="203.063" rx="13.0966" ry="3.0223" transform="rotate(24.7202 984.535 203.063)" fill="white"/>
</g>
<g id="Ellipse 52" filter="url(#filter5_f_416_6549)">
<ellipse cx="788.925" cy="213.715" rx="13.0966" ry="3.0223" transform="rotate(-15.7375 788.925 213.715)" fill="white"/>
</g>
<g id="Ellipse 47" filter="url(#filter6_f_416_6549)">
<ellipse cx="1013.3" cy="201.776" rx="10.017" ry="3.0223" transform="rotate(24.7202 1013.3 201.776)" fill="white"/>
</g>
<g id="Ellipse 53" filter="url(#filter7_f_416_6549)">
<ellipse cx="809.981" cy="194.067" rx="10.017" ry="3.0223" transform="rotate(-15.7375 809.981 194.067)" fill="white"/>
</g>
<g id="Ellipse 48" filter="url(#filter8_f_416_6549)">
<ellipse cx="1009.95" cy="213.865" rx="10.017" ry="3.0223" transform="rotate(24.7202 1009.95 213.865)" fill="white"/>
</g>
<g id="Ellipse 54" filter="url(#filter9_f_416_6549)">
<ellipse cx="815.27" cy="205.445" rx="10.017" ry="3.0223" transform="rotate(-15.7375 815.27 205.445)" fill="white"/>
</g>
<g id="Ellipse 46" filter="url(#filter10_f_416_6549)">
<ellipse cx="967.67" cy="190.32" rx="11.5335" ry="3.0223" transform="rotate(24.7202 967.67 190.32)" fill="white"/>
</g>
<path id="Vector 201" d="M934.103 360.732C928.461 365.03 930.185 371.702 931.752 374.5C937.662 385.515 941.378 385.358 942.498 383.903C965.333 376.515 982.459 330.509 974.064 320.099C967.348 311.771 960.072 317.972 957.273 322.114C946.528 360.732 941.155 355.359 934.103 360.732Z" fill="#59848D"/>
<g id="Ellipse 55" filter="url(#filter11_f_416_6549)">
<ellipse cx="767.823" cy="214.963" rx="11.5335" ry="3.0223" transform="rotate(-15.7375 767.823 214.963)" fill="white"/>
</g>
<path id="Vector 212" d="M973.727 289.876C972.048 294.465 970.705 303.711 978.764 303.98C986.823 304.249 978.764 294.689 973.727 289.876Z" fill="black"/>
</g>
</g>
<defs>
<filter id="filter0_f_416_6549" x="974.587" y="183.503" width="29.3027" height="17.6288" filterUnits="userSpaceOnUse" color-interpolation-filters="sRGB">
<feFlood flood-opacity="0" result="BackgroundImageFix"/>
<feBlend mode="normal" in="SourceGraphic" in2="BackgroundImageFix" result="shape"/>
<feGaussianBlur stdDeviation="1.34324" result="effect1_foregroundBlur_416_6549"/>
</filter>
<filter id="filter1_f_416_6549" x="770.212" y="195.21" width="30.6386" height="14.5561" filterUnits="userSpaceOnUse" color-interpolation-filters="sRGB">
<feFlood flood-opacity="0" result="BackgroundImageFix"/>
<feBlend mode="normal" in="SourceGraphic" in2="BackgroundImageFix" result="shape"/>
<feGaussianBlur stdDeviation="1.34324" result="effect1_foregroundBlur_416_6549"/>
</filter>
<filter id="filter2_f_416_6549" x="1011.52" y="204.995" width="29.3027" height="17.6288" filterUnits="userSpaceOnUse" color-interpolation-filters="sRGB">
<feFlood flood-opacity="0" result="BackgroundImageFix"/>
<feBlend mode="normal" in="SourceGraphic" in2="BackgroundImageFix" result="shape"/>
<feGaussianBlur stdDeviation="1.34324" result="effect1_foregroundBlur_416_6549"/>
</filter>
<filter id="filter3_f_416_6549" x="812.267" y="187.593" width="30.6386" height="14.5561" filterUnits="userSpaceOnUse" color-interpolation-filters="sRGB">
<feFlood flood-opacity="0" result="BackgroundImageFix"/>
<feBlend mode="normal" in="SourceGraphic" in2="BackgroundImageFix" result="shape"/>
<feGaussianBlur stdDeviation="1.34324" result="effect1_foregroundBlur_416_6549"/>
</filter>
<filter id="filter4_f_416_6549" x="969.884" y="194.249" width="29.3027" height="17.6288" filterUnits="userSpaceOnUse" color-interpolation-filters="sRGB">
<feFlood flood-opacity="0" result="BackgroundImageFix"/>
<feBlend mode="normal" in="SourceGraphic" in2="BackgroundImageFix" result="shape"/>
<feGaussianBlur stdDeviation="1.34324" result="effect1_foregroundBlur_416_6549"/>
</filter>
<filter id="filter5_f_416_6549" x="773.606" y="206.437" width="30.6386" height="14.5561" filterUnits="userSpaceOnUse" color-interpolation-filters="sRGB">
<feFlood flood-opacity="0" result="BackgroundImageFix"/>
<feBlend mode="normal" in="SourceGraphic" in2="BackgroundImageFix" result="shape"/>
<feGaussianBlur stdDeviation="1.34324" result="effect1_foregroundBlur_416_6549"/>
</filter>
<filter id="filter6_f_416_6549" x="1001.43" y="194.08" width="23.748" height="15.391" filterUnits="userSpaceOnUse" color-interpolation-filters="sRGB">
<feFlood flood-opacity="0" result="BackgroundImageFix"/>
<feBlend mode="normal" in="SourceGraphic" in2="BackgroundImageFix" result="shape"/>
<feGaussianBlur stdDeviation="1.34324" result="effect1_foregroundBlur_416_6549"/>
</filter>
<filter id="filter7_f_416_6549" x="797.618" y="187.4" width="24.7245" height="13.3339" filterUnits="userSpaceOnUse" color-interpolation-filters="sRGB">
<feFlood flood-opacity="0" result="BackgroundImageFix"/>
<feBlend mode="normal" in="SourceGraphic" in2="BackgroundImageFix" result="shape"/>
<feGaussianBlur stdDeviation="1.34324" result="effect1_foregroundBlur_416_6549"/>
</filter>
<filter id="filter8_f_416_6549" x="998.075" y="206.169" width="23.748" height="15.391" filterUnits="userSpaceOnUse" color-interpolation-filters="sRGB">
<feFlood flood-opacity="0" result="BackgroundImageFix"/>
<feBlend mode="normal" in="SourceGraphic" in2="BackgroundImageFix" result="shape"/>
<feGaussianBlur stdDeviation="1.34324" result="effect1_foregroundBlur_416_6549"/>
</filter>
<filter id="filter9_f_416_6549" x="802.907" y="198.777" width="24.7245" height="13.3339" filterUnits="userSpaceOnUse" color-interpolation-filters="sRGB">
<feFlood flood-opacity="0" result="BackgroundImageFix"/>
<feBlend mode="normal" in="SourceGraphic" in2="BackgroundImageFix" result="shape"/>
<feGaussianBlur stdDeviation="1.34324" result="effect1_foregroundBlur_416_6549"/>
</filter>
<filter id="filter10_f_416_6549" x="954.431" y="182.083" width="26.4784" height="16.4745" filterUnits="userSpaceOnUse" color-interpolation-filters="sRGB">
<feFlood flood-opacity="0" result="BackgroundImageFix"/>
<feBlend mode="normal" in="SourceGraphic" in2="BackgroundImageFix" result="shape"/>
<feGaussianBlur stdDeviation="1.34324" result="effect1_foregroundBlur_416_6549"/>
</filter>
<filter id="filter11_f_416_6549" x="754.005" y="208.005" width="27.6386" height="13.9169" filterUnits="userSpaceOnUse" color-interpolation-filters="sRGB">
<feFlood flood-opacity="0" result="BackgroundImageFix"/>
<feBlend mode="normal" in="SourceGraphic" in2="BackgroundImageFix" result="shape"/>
<feGaussianBlur stdDeviation="1.34324" result="effect1_foregroundBlur_416_6549"/>
</filter>
<linearGradient id="paint0_linear_416_6549" x1="851.657" y1="184.431" x2="851.657" y2="368.455" gradientUnits="userSpaceOnUse">
<stop stop-color="white"/>
<stop offset="0.435417" stop-color="#EEEEEE" stop-opacity="0.27"/>
<stop offset="1" stop-color="#D9D9D9" stop-opacity="0"/>
</linearGradient>
<linearGradient id="paint1_linear_416_6549" x1="944.005" y1="186.782" x2="944.005" y2="376.515" gradientUnits="userSpaceOnUse">
<stop stop-color="white"/>
<stop offset="0.503125" stop-color="#ECECEC" stop-opacity="0.3"/>
<stop offset="1" stop-color="#D9D9D9" stop-opacity="0"/>
</linearGradient>
</defs>
</svg>
